<svg version="1.1" id="Layer_1" xmlns="http://www.w3.org/2000/svg" xmlns:xlink="http://www.w3.org/1999/xlink" x="0px" y="0px"
	 width="100%" viewBox="0 0 512 512" enable-background="new 0 0 512 512" xml:space="preserve">
<path fill="#000000" opacity="1.000000" stroke="none" 
	d="
M1.000000,184.000000 
	C1.000000,124.000000 1.037521,64.499916 0.903056,5.000219 
	C0.895316,1.575319 1.576367,0.903139 5.000061,0.905342 
	C172.999985,1.013444 341.000000,1.013444 508.999939,0.905342 
	C512.423645,0.903139 513.096802,1.576367 513.094604,5.000061 
	C512.986511,172.999985 512.986511,341.000000 513.094604,508.999939 
	C513.096802,512.423645 512.423645,513.096802 508.999939,513.094604 
	C341.000000,512.986511 172.999985,512.986511 5.000061,513.094604 
	C1.576367,513.096802 0.900937,512.423950 0.904615,508.999908 
	C1.020815,400.833374 1.000000,292.666656 1.000000,184.000000 
z"/>
<path fill="#42343E" opacity="1.000000" stroke="none" 
	d="
M245.388962,495.052979 
	C241.773575,495.220947 241.278214,492.517212 240.310440,490.546539 
	C229.092789,467.704285 220.442871,443.926880 214.405670,418.538391 
	C212.191788,426.811218 212.092148,434.787933 211.041519,442.612946 
	C209.237167,456.051819 207.856918,469.547333 206.107498,482.994171 
	C205.716629,485.998566 207.301270,489.510406 204.359329,491.961151 
	C201.384933,494.438904 198.194763,492.065887 195.249405,491.809265 
	C181.579300,490.618225 167.966751,488.779388 154.323135,487.266846 
	C143.794022,486.099609 133.248291,485.082916 122.711967,483.980042 
	C112.339615,482.894287 101.968605,481.795471 91.599251,480.681396 
	C83.376099,479.797852 75.172150,478.673553 66.929863,478.050720 
	C60.849453,477.591248 59.730579,476.521118 62.038738,470.713409 
	C65.959526,460.848022 69.955147,450.992920 74.469810,441.392365 
	C76.330093,437.436340 75.427109,435.937164 71.830627,434.307434 
	C63.059780,430.332977 54.517307,425.850830 45.719242,421.941376 
	C39.397930,419.132538 35.948128,413.602753 32.199127,408.477661 
	C26.521797,400.716431 21.283707,392.633484 16.541315,384.226685 
	C14.315277,380.280609 15.585410,378.028961 18.914751,376.088043 
	C35.103554,366.650330 51.321728,357.262878 67.494980,347.798615 
	C82.522194,339.005005 97.545906,330.203827 112.482101,321.257263 
	C116.487419,318.858185 120.757172,318.326660 124.969055,319.338837 
	C128.454712,320.176483 131.481506,319.735413 134.685257,318.672333 
	C141.445633,316.429047 148.191559,314.117859 155.041840,312.182953 
	C157.486374,311.492462 158.436508,311.198883 156.421249,308.875885 
	C138.280853,287.965179 125.648857,263.740662 114.343719,238.723969 
	C110.984283,231.290024 107.293961,224.047623 101.575691,218.084686 
	C96.358925,212.644669 94.660286,206.728821 97.962051,199.509232 
	C102.687332,189.177017 107.809555,179.177673 116.238411,171.257111 
	C118.662407,168.979309 121.238853,166.981903 124.635460,168.568848 
	C127.910896,170.099182 127.172546,173.451675 126.872787,176.130783 
	C126.529335,179.200470 125.460663,182.189011 124.716957,185.173172 
	C125.940208,186.133987 126.681595,185.006393 127.540634,184.775711 
	C130.046555,184.102768 132.740616,182.421829 134.945450,184.826462 
	C136.921478,186.981552 136.213776,189.930145 135.579086,192.454544 
	C134.979218,194.840530 133.657608,197.035934 132.781540,199.363373 
	C130.406586,205.672897 130.488770,211.861725 132.863266,218.296127 
	C141.119141,240.667740 153.246857,260.721161 168.500748,278.945496 
	C169.834656,280.539185 171.159134,282.337372 173.744064,283.324005 
	C173.485794,279.041504 173.622665,274.972229 172.926590,271.050842 
	C171.338287,262.103271 172.208725,253.122406 172.123016,244.160660 
	C172.101059,241.864151 171.736069,241.201340 169.309021,240.853119 
	C161.670456,239.757126 159.777145,236.525467 160.800369,228.886261 
	C162.095932,219.213699 162.818695,209.465363 164.045471,199.782272 
	C164.759567,194.145767 167.376740,191.842300 173.074051,192.109161 
	C178.383377,192.357819 181.987564,191.201385 185.526535,186.431931 
	C191.145325,178.859512 200.547668,177.236191 209.240250,174.993393 
	C216.142197,173.212601 223.113190,171.507065 229.122635,167.489212 
	C238.244537,161.390396 242.709152,152.828979 237.477554,140.944366 
	C234.732361,134.708160 232.194427,128.386169 231.047729,121.621857 
	C230.795609,120.134544 230.403381,119.044235 228.683853,119.025833 
	C224.044998,118.976173 221.351608,115.550163 219.213028,112.427727 
	C213.996140,104.810837 208.224152,97.216080 209.016739,87.114868 
	C209.251770,84.119446 206.872391,83.145477 204.972702,82.049294 
	C197.809189,77.915749 193.213135,72.005882 191.464050,63.861374 
	C190.210312,58.023499 191.522751,52.450180 193.998566,47.411331 
	C202.577576,29.951027 215.968063,18.818317 235.812103,15.885611 
	C256.711212,12.796975 280.615021,25.665497 287.937469,42.838932 
	C288.508362,44.177917 289.081848,45.480412 290.758240,46.082619 
	C299.733521,49.306782 304.711792,55.727768 305.853455,65.576675 
	C307.233093,69.044067 310.821320,71.305511 309.230225,75.709900 
	C310.270020,83.304459 310.190094,90.631798 309.932678,97.924713 
	C309.350677,114.411743 305.045959,129.648544 293.997345,142.424393 
	C289.815552,147.259964 284.901550,149.984055 278.223846,148.243210 
	C274.713837,147.328156 272.722900,148.699142 272.980927,152.587387 
	C273.123230,154.732010 272.844116,156.868927 273.486877,159.020981 
	C275.483093,165.704361 278.944244,168.054703 285.704163,166.860321 
	C297.995331,164.688690 309.734283,165.914322 321.075409,171.508652 
	C326.687073,174.276794 327.168091,179.942184 329.596741,184.475143 
	C332.016998,188.992538 333.678955,193.909485 335.838684,198.574692 
	C339.412506,206.294327 338.694916,209.802933 332.131989,215.488007 
	C330.992584,216.474991 330.239563,217.345596 330.521545,219.256378 
	C331.970062,229.072647 333.325684,238.877792 338.749542,248.030426 
	C343.325562,227.522308 350.894226,208.141922 356.685699,188.217529 
	C358.199677,183.009048 358.333618,177.415634 359.520935,172.092575 
	C361.928223,161.299789 370.459534,155.023987 377.904785,148.002106 
	C379.339264,146.649200 380.892761,145.279312 382.640808,144.431808 
	C386.311096,142.652359 391.179871,145.071671 391.750824,149.390625 
	C392.382202,154.167099 394.174866,153.070938 396.778625,151.164444 
	C401.062592,148.027695 405.337708,144.873001 409.723450,141.882614 
	C415.452698,137.976181 420.424530,137.395554 423.448547,140.058990 
	C426.564362,142.803284 427.158447,148.789093 423.588074,154.366867 
	C421.214447,158.075012 422.355377,160.317505 424.542847,162.931671 
	C431.486786,171.230164 437.188324,180.364258 442.324371,189.838226 
	C445.153595,195.057159 450.250854,192.896591 454.273590,193.830444 
	C457.912048,194.675095 461.898682,194.049637 465.731323,194.018829 
	C468.892914,193.993408 470.457123,195.344070 471.026276,198.631210 
	C476.924347,232.696060 481.625824,266.986877 490.670044,300.457031 
	C493.606842,311.325348 495.716888,322.416260 498.244629,333.396271 
	C499.493561,338.821136 498.569397,340.435394 493.019135,340.892273 
	C479.149078,342.034088 465.225433,342.620300 451.390106,344.067871 
	C426.502594,346.671814 401.558868,345.822083 376.628143,345.965393 
	C365.199768,346.031097 364.646240,345.594574 365.084961,334.384857 
	C365.434540,325.453552 366.368225,316.545654 367.008698,307.624908 
	C367.228180,304.568176 366.987030,301.880280 362.804016,301.870544 
	C360.381897,301.864929 359.981720,300.036316 360.013458,297.999695 
	C360.064087,294.749603 360.027008,291.498108 360.027008,287.721741 
	C341.254791,306.809387 335.619415,306.543457 315.031158,285.532593 
	C315.416351,296.214294 312.438416,306.273346 314.309662,316.136230 
	C315.805084,324.018372 319.532349,331.484955 320.980988,339.517151 
	C324.707794,360.181213 325.587891,380.893890 324.205048,401.918915 
	C322.623413,425.967163 319.179626,449.643860 313.899902,473.088348 
	C312.195892,480.654907 311.016449,488.474762 306.820404,495.269073 
	C304.338379,499.288025 302.946503,499.365143 300.010071,495.483368 
	C299.424377,492.024536 300.860077,489.266052 301.779694,486.470276 
	C309.097900,464.221161 312.848938,441.292755 314.942810,418.048920 
	C315.100922,416.293793 316.155090,414.580933 315.327972,412.525146 
	C310.876312,416.273529 307.325806,420.353363 305.095428,425.790527 
	C298.467285,441.948334 286.689575,454.093292 273.507660,465.042328 
	C271.781342,466.476227 269.844513,467.483795 267.540283,466.458008 
	C264.551300,465.127289 264.251129,461.674500 267.125275,458.486633 
	C271.587311,453.537537 276.420807,448.935516 281.184998,444.277985 
	C284.480621,441.056183 287.254059,437.452148 290.005615,433.518829 
	C286.523315,436.234131 282.787567,438.091431 279.113007,440.039825 
	C277.038605,441.139801 274.820953,441.898895 272.416565,441.763031 
	C270.683441,441.665100 269.064606,441.195129 268.323364,439.425018 
	C267.595032,437.685760 268.242981,436.143433 269.403503,434.824493 
	C271.682007,432.234985 274.918732,431.161438 277.854828,429.627625 
	C291.948639,422.265167 303.878021,412.415894 313.131287,399.382141 
	C315.743652,395.702423 316.834137,391.863922 316.984039,387.314270 
	C317.548889,370.168396 315.600433,353.243683 313.133728,336.342621 
	C313.828796,339.998535 313.709656,343.649719 312.610992,347.189331 
	C311.870636,349.574463 310.376648,351.445221 307.533752,351.016754 
	C304.907806,350.621033 304.171783,348.491150 304.018890,346.213013 
	C303.548431,339.203003 304.700806,332.255524 305.294006,325.320343 
	C306.870972,306.884338 307.005890,288.437073 306.871460,269.967346 
	C306.848175,266.768860 305.457153,266.326111 302.743347,267.453979 
	C300.597656,268.345703 298.482697,269.377411 296.208069,269.925262 
	C293.280975,270.630310 290.415527,270.778503 289.041016,267.359741 
	C287.951782,264.650604 289.812012,262.300934 293.753387,261.134033 
	C294.550354,260.898102 295.327209,260.592407 296.494568,260.291321 
	C299.822266,258.393494 303.628235,258.269592 306.413208,255.277252 
	C314.205170,250.923157 320.421997,245.664536 323.077789,237.108841 
	C323.727600,235.015366 324.145233,232.886337 324.218781,230.744324 
	C324.468445,223.472504 323.089447,222.451675 316.289612,224.769638 
	C294.300659,232.265427 271.643280,236.260849 248.543915,238.309570 
	C242.105652,238.880569 235.584579,238.720825 228.832092,240.058716 
	C224.828491,239.620316 220.383865,238.742599 218.341507,241.930618 
	C216.628082,244.605194 219.947876,247.620255 221.501144,250.293381 
	C226.705933,259.250732 234.284424,266.392761 240.246246,274.772705 
	C244.005219,280.056305 247.786789,285.321167 249.888596,291.557678 
	C251.592102,296.612335 251.103027,301.180298 247.902664,305.708374 
	C245.448074,309.181244 243.749039,313.203430 243.929337,318.072845 
	C242.596237,327.258301 242.645111,335.932495 245.684418,344.477051 
	C248.304291,351.842407 252.663589,357.609985 259.767700,361.115112 
	C260.214600,361.335632 260.683136,361.520599 261.089996,361.806763 
	C263.326263,363.379456 265.757385,365.134583 264.264313,368.236084 
	C262.857025,371.159271 259.880768,371.159912 257.272217,370.211212 
	C248.171509,366.901398 242.202194,360.237305 238.119766,351.681335 
	C234.977219,345.095215 234.195557,338.059570 234.050186,330.502869 
	C233.774689,326.799744 233.900970,323.479919 234.001770,320.552979 
	C220.404358,338.873047 216.184448,360.224762 217.207886,382.848328 
	C217.923752,398.672607 221.245682,414.128265 225.380753,429.386688 
	C230.745132,449.181183 238.644104,468.043579 246.789795,486.807709 
	C247.187439,487.723694 247.876068,488.483643 248.371796,489.818939 
	C248.692062,492.447205 248.301331,494.349457 245.388962,495.052979 
z"/>
<path fill="#B3D9FE" opacity="1.000000" stroke="none" 
	d="
M245.148041,495.382080 
	C246.236008,493.965607 247.291092,492.839783 246.679337,490.665527 
	C244.799255,483.697968 246.363037,477.112946 247.096542,470.557709 
	C248.094009,461.643494 248.947113,452.747742 248.858124,443.759674 
	C248.594025,417.089172 244.350388,391.232910 233.821945,366.548706 
	C229.866425,357.274811 227.182953,347.683685 230.081619,337.486115 
	C230.918167,334.543091 231.083054,331.053162 235.322083,330.010681 
	C236.033768,339.527710 238.007065,348.513702 243.373032,356.482910 
	C247.286835,362.295441 252.576096,366.449036 259.156952,368.905518 
	C260.772278,369.508453 262.523224,369.952789 263.489166,367.972351 
	C264.526703,365.845154 262.877838,364.876373 261.324585,364.258331 
	C246.334229,358.293762 241.822678,345.889038 241.049377,331.249329 
	C240.830765,327.110687 240.856201,322.936584 242.002472,318.453918 
	C243.842896,313.242828 246.844299,309.372131 250.546158,305.875549 
	C257.572998,299.238342 263.940002,291.973541 269.990845,284.440155 
	C272.196777,281.693726 274.026123,278.696838 274.628601,275.149933 
	C275.222168,271.655548 274.625336,268.343994 271.667908,266.143280 
	C268.905945,264.088013 265.853851,264.322754 262.701904,265.797607 
	C248.597595,272.397308 233.567749,268.323547 224.850464,255.659592 
	C220.377579,249.161667 221.488022,241.803299 227.789825,238.288025 
	C240.608841,236.097473 253.311066,236.358200 265.799683,234.304962 
	C284.339386,231.256897 302.820953,227.973511 320.279724,220.745010 
	C324.169189,219.134628 325.195251,220.419189 325.898590,223.794434 
	C327.794739,232.894211 325.724823,240.930984 319.602325,247.891418 
	C316.280029,251.668442 312.341064,254.701431 307.543274,257.135956 
	C298.213959,260.386078 292.208588,255.056198 286.149048,249.775284 
	C288.677551,253.614456 289.934143,254.788651 293.935577,257.083862 
	C295.628143,258.054718 297.597076,258.738861 297.973358,261.344421 
	C295.839111,262.371246 293.791656,263.062866 291.741333,263.745850 
	C289.968323,264.336395 289.392090,265.624054 290.018463,267.264587 
	C290.584686,268.747437 291.855988,269.063599 293.317596,268.514008 
	C297.363098,266.992950 301.482391,265.636108 305.422699,263.878571 
	C308.039093,262.711517 309.228790,262.509155 309.259247,266.038605 
	C309.468018,290.218231 308.684265,314.354065 306.497650,338.439697 
	C306.256714,341.093903 306.016876,343.748962 305.838257,346.407745 
	C305.725800,348.081299 305.518250,350.014587 307.887543,350.222687 
	C310.179382,350.423981 310.574005,348.379120 310.768768,346.844421 
	C311.435516,341.589874 311.854431,336.303925 312.467133,330.010406 
	C315.769989,338.784058 316.797302,347.125763 317.865295,355.420624 
	C319.379791,367.183075 319.258362,379.024353 319.153503,390.861176 
	C319.130249,393.483490 318.445435,395.659027 316.995819,397.821808 
	C306.129700,414.033722 291.506317,425.747406 274.054047,434.190033 
	C272.047333,435.160797 268.014130,435.594025 269.403229,438.787964 
	C270.777130,441.946960 274.088806,439.884644 276.384186,438.908630 
	C282.842224,436.162567 288.500671,431.998688 294.601868,428.090363 
	C295.685516,430.327789 294.028870,431.570190 293.169281,432.927307 
	C287.772339,441.448059 280.720612,448.529144 273.438202,455.402252 
	C271.499115,457.232330 269.551453,459.053467 267.627472,460.899292 
	C266.450012,462.028809 265.677307,463.277954 267.079102,464.757904 
	C268.395233,466.147339 269.764374,465.817139 271.025818,464.670288 
	C282.887024,453.887268 295.316284,443.241028 301.522858,428.144287 
	C305.184296,419.238220 311.981201,413.535004 318.039734,405.304626 
	C318.222809,414.798218 316.866638,422.934235 315.850006,431.058014 
	C313.366608,450.902832 309.620605,470.496613 303.190094,489.502197 
	C302.543335,491.413788 301.947754,493.293640 300.284943,495.002197 
	C299.038849,495.435760 298.123474,495.963013 297.208832,495.961731 
	C279.921082,495.937592 262.633484,495.850891 245.148041,495.382080 
z"/>
<path fill="#4E3942" opacity="1.000000" stroke="none" 
	d="
M309.313995,76.241501 
	C308.030426,72.937431 307.038696,69.820328 306.034698,66.312897 
	C314.958435,72.440315 316.747559,82.274055 317.904449,92.237679 
	C318.417938,96.660164 317.991089,101.191833 317.628357,105.732666 
	C315.517700,95.781128 314.732880,85.503700 309.313995,76.241501 
z"/>
<path fill="#FE7885" opacity="1.000000" stroke="none" 
	d="
M176.706924,349.778046 
	C177.488419,354.027557 180.500076,353.702179 183.381958,353.719360 
	C189.302780,353.754608 189.342850,353.789703 188.100174,359.714752 
	C179.842209,399.088593 171.497375,438.444489 163.400955,477.851471 
	C162.593613,481.781006 161.086212,482.581726 157.414017,482.166962 
	C130.963211,479.179596 104.485008,476.434875 78.033768,473.451141 
	C67.530724,472.266388 68.120918,472.272522 71.524574,462.266266 
	C76.264671,448.331207 84.434525,437.399017 95.127983,427.267548 
	C120.260147,403.456299 144.402573,378.600830 168.977829,354.200439 
	C170.593964,352.595795 171.889389,350.499542 174.734756,349.916473 
	C175.502853,349.608948 175.945831,349.509186 176.706924,349.778046 
z"/>
<path fill="#FEDCA9" opacity="1.000000" stroke="none" 
	d="
M383.638763,235.376160 
	C382.544159,223.150757 381.546265,211.378555 380.432983,199.617264 
	C380.253235,197.718109 380.594208,196.721222 382.677856,196.910599 
	C383.173889,196.955688 383.676147,196.940186 384.175507,196.938507 
	C393.859711,196.905975 393.845337,196.909088 396.107300,206.091034 
	C396.423035,207.372757 396.841492,208.659363 397.428802,209.835648 
	C398.035004,211.049820 399.248627,211.247238 400.451538,210.848999 
	C401.499542,210.502029 402.006714,209.643143 401.959412,208.526672 
	C401.938477,208.032928 401.829559,207.541718 401.745026,207.052032 
	C400.097198,197.508087 400.096771,197.506195 409.872040,197.819717 
	C418.523560,198.097198 427.178009,198.644989 435.825073,198.545380 
	C439.994354,198.497360 442.211945,200.143753 443.762329,203.687408 
	C444.892181,206.269806 446.335266,208.718307 447.693634,211.196396 
	C448.485443,212.640976 449.244873,214.452530 451.419067,213.324173 
	C453.663513,212.159348 453.054626,210.423538 452.119324,208.650345 
	C450.588623,205.748444 449.131134,202.807922 447.509247,199.621445 
	C453.196808,199.621445 458.405945,199.580170 463.613892,199.642181 
	C465.637207,199.666275 465.750122,201.277222 466.008240,202.814911 
	C470.714996,230.854416 475.375793,258.902161 480.272430,286.908630 
	C480.908813,290.548431 479.954041,290.630096 476.894470,290.184814 
	C448.094696,285.993011 419.278931,281.910034 390.453857,277.895447 
	C387.677582,277.508789 387.084808,276.177765 386.893311,273.637329 
	C385.942596,261.027222 384.783081,248.432877 383.638763,235.376160 
z"/>
<path fill="#FDFDFD" opacity="1.000000" stroke="none" 
	d="
M189.872696,199.477341 
	C206.862717,199.317902 223.648758,199.585052 240.400665,197.374374 
	C265.913055,194.007599 290.560455,187.362122 314.606689,178.407379 
	C318.784424,176.851639 320.708618,177.178360 322.298920,181.675797 
	C324.841003,188.864960 327.980103,195.861359 331.194092,202.787384 
	C332.982208,206.640747 332.002228,208.963867 328.540497,211.007782 
	C316.038452,218.389420 302.273895,222.065948 288.235870,224.962540 
	C285.800140,225.465118 283.313385,225.720490 280.429443,226.046112 
	C273.769562,225.221481 267.571106,224.011414 261.314301,223.529617 
	C255.381241,223.072754 249.424713,224.037872 243.501099,224.530518 
	C234.387802,225.288467 225.337723,225.675186 216.275803,224.028961 
	C203.420944,221.693710 196.204941,212.612518 189.995911,202.293320 
	C189.569122,201.584015 189.576370,200.699875 189.872696,199.477341 
z"/>
<path fill="#FDDBA9" opacity="1.000000" stroke="none" 
	d="
M130.381042,350.383698 
	C109.494026,366.099701 88.855507,381.549591 68.328072,397.145691 
	C65.905327,398.986420 64.159363,399.524933 61.354633,397.829010 
	C51.645771,391.958618 40.832806,388.454071 30.492603,383.931000 
	C28.234539,382.943298 26.024832,381.845093 23.178192,380.509277 
	C27.280382,378.087646 30.831097,375.979279 34.393360,373.890594 
	C61.492489,358.001404 88.603897,342.133148 115.677200,326.200073 
	C118.069717,324.792053 120.285706,324.065613 123.161377,324.725983 
	C133.492386,327.098450 143.881210,329.219147 155.600891,331.724121 
	C146.735626,338.278442 138.699234,344.219940 130.381042,350.383698 
z"/>
<path fill="#729FCB" opacity="1.000000" stroke="none" 
	d="
M235.833893,329.614258 
	C229.809525,338.985779 230.043198,348.582947 233.268524,358.183228 
	C237.389526,370.449585 242.738464,382.277191 245.595108,394.999664 
	C251.818832,422.717987 252.598663,450.570099 248.390930,478.613220 
	C247.849136,482.224152 247.318024,485.836670 246.690430,489.892303 
	C228.555984,452.856323 214.661728,414.211853 215.107376,371.886322 
	C215.315460,352.123322 220.766388,333.796539 233.197525,317.987701 
	C234.172379,316.747955 234.787094,315.007477 237.022858,314.697784 
	C236.359070,319.576263 235.610107,324.337097 235.833893,329.614258 
z"/>
<path fill="#C74C5B" opacity="1.000000" stroke="none" 
	d="
M210.051331,369.212158 
	C212.294128,403.308136 205.540314,436.232086 202.268494,469.427246 
	C201.811707,474.061646 201.325897,478.693237 200.846161,483.325348 
	C200.612793,485.578613 199.927917,486.988922 197.081604,486.613220 
	C188.840363,485.525482 180.566956,484.678925 172.302658,483.769714 
	C169.216766,483.430206 167.586243,482.596375 168.413651,478.724426 
	C176.685089,440.017059 184.762619,401.268311 192.904327,362.533203 
	C193.102051,361.592468 193.409714,360.674805 193.641495,359.835571 
	C195.280960,359.438507 195.548035,360.674744 196.006409,361.402557 
	C198.084595,364.702301 200.590637,365.472717 203.912094,363.127930 
	C205.126816,362.270386 206.520523,361.661682 207.849091,360.971222 
	C209.824066,359.944733 211.036545,360.026215 210.629929,362.786713 
	C210.339722,364.757050 210.241669,366.755737 210.051331,369.212158 
z"/>
<path fill="#FCD2B1" opacity="1.000000" stroke="none" 
	d="
M326.703247,248.170700 
	C327.714355,246.049667 328.565674,244.322784 329.671478,242.079681 
	C333.495483,250.377609 335.661804,258.539215 337.916504,266.670624 
	C338.226471,267.788422 338.492676,268.921600 338.868500,270.016998 
	C339.288086,271.240082 340.148712,272.054352 341.502563,271.700348 
	C342.924347,271.328552 343.934052,270.294006 343.584229,268.765137 
	C340.725952,256.272888 345.697357,244.844009 348.516388,233.171890 
	C350.148132,226.415863 352.633545,219.865967 354.736481,213.223831 
	C358.139526,202.475235 362.063385,191.878479 363.400299,180.565796 
	C364.997986,167.046555 373.838531,158.387024 384.195801,150.430237 
	C384.689545,150.369354 384.891998,150.491089 385.194122,150.952850 
	C383.774048,153.246582 382.169098,155.141159 380.760406,157.171890 
	C379.538177,158.933899 379.287933,160.934204 380.607849,162.765091 
	C381.968262,164.652115 384.001343,164.910126 385.977905,164.074142 
	C388.834595,162.865906 391.573273,161.378693 395.163025,159.617706 
	C394.794525,163.577606 394.432434,166.946152 394.189575,170.323288 
	C394.085724,171.767715 393.137695,172.285126 392.046082,172.750183 
	C380.835876,177.526154 375.797546,187.075836 373.022400,198.062408 
	C368.459076,216.128235 366.204407,234.637390 363.028381,252.968750 
	C361.494873,261.819946 359.669525,270.615601 356.716858,279.098907 
	C354.195435,286.343262 350.361633,292.678711 342.483002,295.365326 
	C340.536377,296.029083 338.583923,296.118896 336.252167,295.552734 
	C327.851349,280.758820 321.465210,265.809845 326.703247,248.170700 
z"/>
<path fill="#C68F55" opacity="1.000000" stroke="none" 
	d="
M98.273163,417.273224 
	C93.687164,422.062988 89.351494,426.603058 84.499870,431.683380 
	C79.728195,422.215790 75.131912,413.952911 69.733864,406.172516 
	C67.753372,403.317963 69.889473,402.036346 71.808311,400.600769 
	C88.992004,387.744873 106.147324,374.851013 123.342216,362.010132 
	C134.510910,353.669556 145.731628,345.398682 157.139130,336.940796 
	C159.140808,339.699402 156.218613,344.309814 160.566193,345.171082 
	C163.370285,345.726593 166.373810,345.275482 169.539230,345.275482 
	C145.688828,369.371826 122.106155,393.197693 98.273163,417.273224 
z"/>
<path fill="#FD7785" opacity="1.000000" stroke="none" 
	d="
M460.436127,313.718811 
	C468.197449,308.189240 475.644775,302.876526 483.466675,297.296600 
	C485.674835,302.315125 486.222137,307.402893 487.472382,312.275452 
	C488.919952,317.916840 489.904816,323.687683 491.570282,329.258942 
	C492.877106,333.630493 492.075897,335.478912 487.189453,335.789490 
	C474.224670,336.613525 461.293732,337.957245 448.333282,338.865448 
	C436.699768,339.680634 425.033356,340.038879 413.405914,340.920959 
	C409.420715,341.223297 408.333038,339.794952 407.906830,336.070923 
	C406.961029,327.807098 405.594238,319.585449 404.185760,311.383209 
	C403.519653,307.504211 403.615662,305.797668 408.678497,306.507660 
	C424.189453,308.682800 439.576691,311.476501 454.929260,314.509918 
	C456.770294,314.873657 458.522217,315.340179 460.436127,313.718811 
z"/>
<path fill="#000000" opacity="1.000000" stroke="none" 
	d="
M200.653351,299.517548 
	C203.594086,283.604187 205.496811,268.019714 205.062988,252.198303 
	C204.973328,248.928421 206.313965,245.698135 206.054718,242.337036 
	C205.992249,241.527313 206.156281,240.583298 207.161591,240.359512 
	C208.489624,240.063873 208.798904,241.076965 209.120758,242.059387 
	C214.445023,258.310547 226.676819,269.935394 236.612503,283.099030 
	C237.209625,283.890137 237.757812,284.719055 238.311295,285.542145 
	C244.991638,295.476349 245.122849,298.019745 236.521042,305.905701 
	C223.122345,318.189392 215.504471,333.393555 212.031189,350.931427 
	C211.579514,353.212158 210.382782,354.100983 208.339447,354.117523 
	C206.413910,354.133148 207.009476,352.493500 207.021194,351.523224 
	C207.154037,340.521362 204.243286,330.170715 199.777771,320.309387 
	C197.597076,315.493713 196.673080,311.105072 198.901260,306.156433 
	C199.770523,304.225922 199.996063,302.005524 200.653351,299.517548 
z"/>
<path fill="#4E3942" opacity="1.000000" stroke="none" 
	d="
M213.359131,70.440414 
	C213.088150,70.897827 213.006836,71.043381 212.930710,71.191605 
	C209.100296,78.648933 206.909332,78.779793 201.559021,71.855667 
	C195.570084,64.105064 195.134506,55.526516 199.936081,47.510147 
	C210.219299,30.342068 225.196777,19.717180 245.859680,21.250793 
	C260.545319,22.340767 272.611450,29.941286 281.298889,42.089993 
	C283.790070,45.573719 280.261078,45.021042 278.601685,44.945911 
	C267.843475,44.458790 257.398102,46.119949 247.054749,48.951405 
	C237.432724,51.585400 228.773193,56.106079 220.771210,61.917648 
	C217.805573,64.071495 215.453369,66.947746 213.359131,70.440414 
z"/>
<path fill="#FCD2B1" opacity="1.000000" stroke="none" 
	d="
M129.625885,191.160919 
	C123.695679,202.629059 124.154823,213.998322 129.168625,225.148224 
	C139.781937,248.750519 152.108902,271.320953 170.799149,289.733124 
	C172.553024,291.460907 173.322540,293.059540 172.342361,295.426392 
	C171.775665,296.794800 171.591568,298.316742 171.096298,299.720581 
	C169.796463,303.404785 168.029175,307.701538 164.320511,308.359589 
	C161.594116,308.843353 159.791077,304.494202 157.868347,302.097382 
	C142.997177,283.559967 131.736908,262.848145 121.734146,241.405441 
	C117.098000,231.467026 112.874443,221.344437 104.955574,213.320145 
	C102.000778,210.326050 100.785057,206.297684 102.764168,202.251038 
	C107.141907,193.300018 111.569733,184.342194 118.456924,176.936203 
	C119.101562,176.243011 119.655304,175.301712 121.071136,175.400101 
	C120.514595,180.226364 118.620628,184.672440 117.371826,189.278641 
	C116.807831,191.358932 115.770889,193.608948 117.818573,195.306946 
	C120.159279,197.247925 121.728416,194.838806 123.476585,193.828995 
	C125.054848,192.917343 126.567436,191.891968 128.453156,190.853546 
	C129.041687,190.795883 129.286072,190.801376 129.625885,191.160919 
z"/>
<path fill="#FBCDAC" opacity="1.000000" stroke="none" 
	d="
M266.791077,156.637939 
	C267.375092,158.224594 267.725647,159.502319 268.085327,160.777481 
	C270.562317,169.559769 275.977234,173.170868 285.109039,172.549179 
	C292.023376,172.078430 298.916107,169.949051 305.904541,172.077545 
	C307.286652,172.498520 308.766357,172.626419 310.225525,174.087738 
	C303.321136,177.426605 296.164154,179.319412 289.132904,181.468491 
	C258.164673,190.933884 226.522720,195.383560 194.111267,193.839020 
	C192.781708,193.775681 191.448792,193.732025 190.125504,193.598999 
	C187.797623,193.364990 187.771240,192.226120 189.023514,190.629456 
	C190.709717,188.479492 192.932465,187.084229 195.372711,185.931122 
	C203.080109,182.289032 211.398407,180.488525 219.441757,177.859756 
	C229.641769,174.526184 238.849579,169.864655 243.858261,158.550659 
	C245.051575,161.325531 245.940079,163.367371 246.808289,165.417816 
	C247.580444,167.241379 248.641006,168.847336 250.893188,167.899323 
	C253.035461,166.997589 252.269699,165.117279 251.701233,163.594818 
	C250.014832,159.078506 248.311829,154.574371 247.642731,149.439880 
	C248.115311,148.849854 248.439728,148.539749 248.701523,148.610107 
	C255.029388,150.310989 261.163879,152.471054 266.791077,156.637939 
z"/>
<path fill="#BDC2CB" opacity="1.000000" stroke="none" 
	d="
M189.634460,198.985733 
	C192.903076,202.991470 195.710052,206.920334 198.609146,210.780045 
	C204.921814,219.184372 213.907211,222.277039 223.877029,222.942902 
	C234.374649,223.643997 244.810547,222.156616 255.270248,221.498978 
	C263.637695,220.972885 271.887360,221.615829 279.801025,225.706848 
	C269.735626,228.833344 259.141632,229.699234 248.621384,230.831070 
	C223.322052,233.552948 197.927582,234.857697 172.482574,235.168121 
	C165.833023,235.249252 165.417313,234.799835 166.211197,228.050476 
	C167.200974,219.635895 168.317307,211.231308 169.057465,202.794205 
	C169.455322,198.259079 171.257660,196.703400 175.825775,197.536652 
	C180.223907,198.338882 184.746613,198.458160 189.634460,198.985733 
z"/>
<path fill="#FCD3B1" opacity="1.000000" stroke="none" 
	d="
M292.131531,103.685364 
	C293.255737,108.578773 294.941559,112.754501 299.468903,114.777779 
	C301.742798,115.793976 301.267426,117.263626 300.754730,118.841881 
	C298.042786,127.190804 293.663757,134.527023 287.513794,140.835419 
	C285.388000,143.015976 282.882202,143.431717 280.199829,142.924332 
	C270.260193,141.044159 260.290070,139.345444 250.643127,136.089478 
	C246.474518,134.682526 244.580917,132.868118 244.853943,128.054108 
	C245.376755,118.835953 246.674911,109.902870 250.511169,101.445503 
	C251.132202,100.076378 251.698013,98.438812 253.707626,99.343063 
	C255.028137,99.937256 256.813354,99.511734 257.149170,102.071564 
	C258.386414,111.502373 261.654022,114.786064 269.841461,115.652153 
	C278.649109,116.583855 285.510437,112.548119 288.422943,104.699692 
	C288.709564,103.927261 288.899902,103.115311 289.086334,102.310440 
	C289.308960,101.349228 289.931427,100.879555 290.857971,100.979530 
	C292.323090,101.137627 291.862885,102.411407 292.131531,103.685364 
z"/>
<path fill="#C48E55" opacity="1.000000" stroke="none" 
	d="
M409.489166,301.496307 
	C396.337341,300.039795 383.625488,298.671936 369.404785,297.141724 
	C375.179443,291.936401 379.919678,287.460022 384.906311,283.277344 
	C386.684814,281.785614 389.152466,282.817749 391.232330,283.109192 
	C413.158600,286.181702 435.070648,289.355896 456.986328,292.504059 
	C463.241577,293.402588 469.495911,294.307404 477.144165,295.410278 
	C470.051544,300.508331 463.858398,305.030579 457.573517,309.421600 
	C456.207031,310.376312 454.642517,309.314240 453.227997,308.993713 
	C438.925507,305.752686 424.473419,303.403442 409.489166,301.496307 
z"/>
<path fill="#729FCB" opacity="1.000000" stroke="none" 
	d="
M227.674759,238.033325 
	C222.310333,246.102310 222.703476,251.330948 229.649002,258.313446 
	C239.125519,267.840424 250.065079,269.582458 262.298401,263.512573 
	C269.573029,259.903076 276.857239,264.328278 276.975769,272.481049 
	C277.090118,280.348541 272.135162,285.742889 267.389771,291.038788 
	C259.305237,300.061157 250.914993,308.809540 242.380646,317.860901 
	C242.599304,312.764130 243.225388,307.632965 247.056061,303.346619 
	C249.392990,300.731689 249.380966,297.263977 248.497253,293.875763 
	C247.042130,288.296661 243.999664,283.536377 240.614334,279.023315 
	C235.936356,272.787079 230.973068,266.765686 226.209900,260.592163 
	C223.982300,257.705048 221.750397,254.790909 219.857544,251.683655 
	C217.572937,247.933273 213.251602,243.613113 215.470428,239.748413 
	C217.298431,236.564407 223.134567,238.234177 227.674759,238.033325 
z"/>
<path fill="#4E3942" opacity="1.000000" stroke="none" 
	d="
M244.784485,56.185242 
	C256.678070,49.996521 269.304779,49.515362 281.963287,50.148235 
	C287.953918,50.447742 293.660004,52.481667 297.265839,58.396912 
	C296.553772,58.528557 296.052063,58.790764 295.680969,58.665619 
	C276.295288,52.127735 261.024902,59.465668 247.461700,72.818810 
	C243.005493,77.205978 239.489853,82.184090 237.049927,87.921059 
	C236.091125,90.175514 235.188263,90.569885 233.138260,88.728859 
	C227.615707,83.769234 224.860352,83.710320 218.605484,87.569283 
	C217.427521,88.296028 216.253662,90.096062 214.722626,89.027580 
	C213.408279,88.110329 213.968826,86.233147 214.056747,84.786621 
	C214.722687,73.832787 223.979401,62.915524 234.749084,60.765686 
	C235.458939,61.500111 235.231201,61.965099 234.662216,62.512100 
	C234.512787,62.618656 234.388657,62.728840 234.526505,62.629993 
	C235.288971,62.184719 235.848679,61.734463 236.736816,61.189140 
	C236.994843,60.981487 237.000610,61.001827 236.991791,60.995758 
	C238.498962,59.303093 240.376556,58.172443 242.746338,57.193764 
	C243.001236,56.980896 243.003372,57.003872 242.992859,56.999187 
	C243.423233,56.567451 244.010040,56.511158 244.784485,56.185242 
z"/>
<path fill="#C74C5B" opacity="1.000000" stroke="none" 
	d="
M394.060333,340.967468 
	C387.279968,340.618958 380.980652,340.172943 374.673706,339.993042 
	C371.919647,339.914490 370.872314,338.943420 370.925049,336.136902 
	C371.112396,326.162720 371.870850,316.235748 372.777527,306.306519 
	C373.056061,303.256104 374.510071,302.789764 377.017517,303.073273 
	C383.121552,303.763428 389.226257,304.463470 395.344482,305.003296 
	C397.448883,305.188995 398.275787,306.361237 398.551483,308.137939 
	C400.053314,317.816071 401.499268,327.502869 402.989105,337.182922 
	C403.411499,339.927490 402.454681,341.291077 399.523315,341.056305 
	C397.870117,340.923920 396.200500,340.997375 394.060333,340.967468 
z"/>
<path fill="#FCD2B1" opacity="1.000000" stroke="none" 
	d="
M199.638306,248.701416 
	C199.986298,268.611664 198.087540,287.855743 192.928070,307.324310 
	C188.751541,301.852692 184.875153,296.943451 181.198181,291.889099 
	C179.220612,289.170746 179.847122,285.755249 179.592300,282.676422 
	C178.663269,271.451477 176.515961,260.281006 177.877136,248.565521 
	C183.566223,240.646835 194.501373,240.696640 199.638306,248.701416 
z"/>
<path fill="#C48E54" opacity="1.000000" stroke="none" 
	d="
M369.987366,241.998047 
	C371.733917,231.750519 373.439148,221.935059 375.357147,210.894684 
	C377.742798,216.761002 377.140289,221.810471 377.644318,226.622437 
	C379.308746,242.511826 380.467072,258.453644 381.933533,274.364868 
	C382.201782,277.275421 381.510864,279.410370 379.208221,281.340973 
	C375.020233,284.852325 371.062195,288.637848 366.581390,292.695496 
	C364.482391,275.323822 366.348663,258.822388 369.987366,241.998047 
z"/>
<path fill="#C48E54" opacity="1.000000" stroke="none" 
	d="
M77.050453,429.561829 
	C66.183182,425.998260 56.050491,420.628571 45.847504,415.472107 
	C42.966019,414.015869 41.019073,410.543060 38.887131,407.805359 
	C34.204773,401.792664 29.739353,395.618591 26.153116,388.853455 
	C27.731586,387.596527 28.833439,388.866028 29.916821,389.306671 
	C40.217957,393.496338 50.605171,397.495361 60.322121,402.998535 
	C62.430420,404.192535 63.957165,405.668304 65.038834,407.876373 
	C68.618835,415.184387 73.988739,421.470215 77.050453,429.561829 
z"/>
<path fill="#FACEAD" opacity="1.000000" stroke="none" 
	d="
M280.780029,86.752716 
	C271.996124,84.552261 264.475677,85.323471 259.501678,93.477318 
	C258.436890,95.222809 257.179993,95.442924 255.871887,94.480690 
	C254.093369,93.172424 255.971542,92.113434 256.642548,91.286919 
	C266.822784,78.747704 279.986908,71.441551 295.925995,68.983810 
	C299.554535,68.424316 301.618317,69.696381 302.274933,73.321304 
	C302.776337,76.089493 303.591003,78.820419 303.857391,81.607002 
	C304.227753,85.481857 305.579468,90.052452 298.746826,89.838676 
	C296.664093,89.773506 294.919830,91.669121 293.746582,93.597908 
	C291.754730,96.872520 290.169006,96.455688 288.562775,93.203430 
	C287.028168,90.096130 284.393707,88.105431 280.780029,86.752716 
z"/>
<path fill="#4E3942" opacity="1.000000" stroke="none" 
	d="
M260.023499,68.982941 
	C269.953552,62.069210 280.393066,60.327358 291.772888,63.504093 
	C259.615570,72.934364 241.017456,93.170509 239.573029,127.307030 
	C230.603104,114.318703 239.738739,81.617462 260.023499,68.982941 
z"/>
<path fill="#EC957B" opacity="1.000000" stroke="none" 
	d="
M326.582733,247.967499 
	C327.796387,251.676270 327.916534,255.523849 327.294769,259.561005 
	C326.039032,267.714691 328.089417,275.303955 332.273712,282.377655 
	C334.471375,286.092834 336.512054,289.906189 335.965637,294.924469 
	C333.661987,295.316071 331.660278,294.407532 330.041504,292.998169 
	C321.147491,285.254822 314.959045,275.999603 314.108276,263.828003 
	C313.910492,260.997650 314.468567,258.815399 317.146423,257.140411 
	C320.809235,254.849319 323.750366,251.664124 326.582733,247.967499 
z"/>
<path fill="#000000" opacity="1.000000" stroke="none" 
	d="
M189.177887,328.239380 
	C190.587646,326.203247 191.758347,324.438263 192.976074,322.602356 
	C198.233276,329.118073 201.880463,345.591217 200.656250,356.677734 
	C200.378220,356.577148 199.900711,356.533569 199.851669,356.365234 
	C197.213089,347.306885 190.106064,347.490997 182.766708,347.972168 
	C181.380798,348.063049 179.425217,348.724609 178.664505,347.183563 
	C177.936890,345.709564 179.478241,344.241669 180.418549,343.389435 
	C184.908173,339.320465 184.644882,332.615387 189.177887,328.239380 
z"/>
<path fill="#6C4631" opacity="1.000000" stroke="none" 
	d="
M269.130402,92.108932 
	C270.088440,90.978210 271.419250,90.946938 272.754333,90.975700 
	C277.127441,91.069916 281.772339,91.179985 284.092743,95.565994 
	C286.248199,99.640228 283.670624,103.402283 281.452515,106.592415 
	C278.859985,110.321075 274.583221,111.144127 270.329681,110.510750 
	C262.428345,109.334229 260.354309,105.462929 263.760864,98.163704 
	C265.574402,97.661400 265.812378,95.976730 267.236572,95.115082 
	C267.444305,94.754562 267.497681,94.605164 267.823029,94.518845 
	C268.220581,93.955627 268.611084,93.488350 269.155090,93.153069 
	C269.426575,92.985771 269.953247,92.975357 269.988739,92.872597 
	C270.243622,92.134232 269.398804,92.733330 269.130402,92.108932 
z"/>
<path fill="#000000" opacity="1.000000" stroke="none" 
	d="
M419.684143,166.405350 
	C424.878479,174.245422 429.788666,181.854218 434.934326,189.300293 
	C437.222656,192.611633 435.880615,192.761063 432.752960,193.123352 
	C427.366425,193.747284 424.200989,191.981491 422.226349,186.768982 
	C420.013550,180.927933 417.063629,175.356842 414.272247,169.749054 
	C413.238037,167.671417 413.879211,166.400116 415.428528,165.066330 
	C417.371826,163.393387 418.364075,164.900467 419.684143,166.405350 
z"/>
<path fill="#000000" opacity="1.000000" stroke="none" 
	d="
M408.769531,172.589157 
	C411.482849,178.278717 413.980499,183.690140 416.577911,189.053253 
	C417.605804,191.175705 417.203552,192.163879 414.740601,192.019333 
	C414.078949,191.980499 413.412872,192.013138 412.748871,192.018265 
	C399.742157,192.118622 399.742157,192.118774 399.982452,179.309967 
	C400.077209,174.258682 402.934021,171.930359 408.769531,172.589157 
z"/>
<path fill="#F8CFAF" opacity="1.000000" stroke="none" 
	d="
M412.176147,160.186279 
	C408.406342,163.397141 404.737976,166.111984 400.038483,168.545776 
	C399.881042,163.588196 398.869324,158.204758 401.553101,155.550552 
	C406.012482,151.140320 410.777313,146.417313 417.210968,144.442169 
	C419.744110,143.664474 420.073334,145.115051 419.993958,147.029144 
	C419.760376,152.664276 416.236420,156.387756 412.176147,160.186279 
z"/>
<path fill="#EC957B" opacity="1.000000" stroke="none" 
	d="
M267.067169,156.519974 
	C260.358246,155.593887 254.093552,153.275589 248.179947,149.192856 
	C247.855118,149.068481 247.942169,149.035202 247.960129,149.078201 
	C247.849792,148.944199 247.721497,148.767197 247.376862,148.343750 
	C246.286758,145.595642 245.494751,143.085403 246.346069,140.055710 
	C252.863464,142.150848 259.280975,144.258301 265.930664,145.472183 
	C267.784180,145.810562 268.221893,146.880203 267.898804,148.707397 
	C267.468872,151.139114 267.360535,153.627716 267.067169,156.519974 
z"/>
<path fill="#000000" opacity="1.000000" stroke="none" 
	d="
M178.250290,328.820007 
	C180.457458,332.926727 178.140717,338.336914 174.156860,338.912384 
	C171.398697,339.310822 168.583649,339.306122 165.797638,339.527069 
	C165.048325,339.586456 164.251892,339.345032 164.274872,338.699982 
	C164.403503,335.088165 162.151276,330.894287 164.587784,327.994659 
	C168.175751,323.724640 171.613083,324.027588 176.288300,327.552338 
	C176.811188,327.946594 177.411545,328.238068 178.250290,328.820007 
z"/>
<path fill="#F9CFAE" opacity="1.000000" stroke="none" 
	d="
M231.048553,106.628281 
	C231.119598,109.091240 231.119598,111.224731 231.119598,113.427467 
	C223.887192,111.981766 217.662949,102.407883 219.295105,95.657265 
	C219.963043,92.894600 221.562256,90.749741 224.402420,90.117783 
	C227.856308,89.349266 229.375153,92.005959 231.059647,94.716980 
	C230.304581,98.789955 227.762131,102.493889 231.048553,106.628281 
z"/>
<path fill="#EE967C" opacity="1.000000" stroke="none" 
	d="
M199.867920,248.647049 
	C193.054626,243.500595 186.010895,243.748367 178.390472,248.104660 
	C177.690857,240.160004 177.690872,240.160629 185.428070,240.019623 
	C187.569061,239.980621 189.710114,239.943405 191.850876,239.893982 
	C200.095749,239.703583 200.095703,239.701859 199.867920,248.647049 
z"/>
<path fill="#75A1CD" opacity="1.000000" stroke="none" 
	d="
M298.225769,261.629333 
	C293.224854,258.688843 287.794678,256.763519 284.385559,252.021194 
	C283.201843,250.374603 280.679230,248.658401 282.930420,246.597321 
	C285.153748,244.561752 286.670258,246.891937 288.099426,248.524979 
	C292.922180,254.035522 299.063690,256.812531 306.779053,257.191559 
	C304.329163,258.683319 301.446442,260.129303 298.225769,261.629333 
z"/>
<path fill="#000000" opacity="1.000000" stroke="none" 
	d="
M160.402618,322.752686 
	C154.659698,324.752380 149.232468,325.249939 142.096909,322.964172 
	C149.644821,320.563019 155.856964,318.488434 162.141830,316.664398 
	C163.521622,316.263916 164.559601,317.741425 165.129852,318.884399 
	C165.918365,320.464844 164.355499,320.720581 163.395782,321.234772 
	C162.521957,321.702972 161.641129,322.158112 160.402618,322.752686 
z"/>
<path fill="#000000" opacity="1.000000" stroke="none" 
	d="
M393.827972,190.492798 
	C390.385132,191.814148 387.023895,190.646912 383.663788,190.970551 
	C381.596069,191.169708 381.420654,189.856293 382.314758,188.481277 
	C384.477783,185.154831 387.336792,182.445084 390.609680,180.245056 
	C392.105164,179.239807 392.931091,179.911194 393.040710,181.792389 
	C393.202576,184.570328 393.619141,187.333420 393.827972,190.492798 
z"/>
<path fill="#6A4531" opacity="1.000000" stroke="none" 
	d="
M297.917542,97.223137 
	C299.145813,95.318619 300.281586,93.636497 302.472076,94.602806 
	C304.351868,95.432053 303.970337,97.386490 304.001862,99.018105 
	C304.056610,101.850914 303.944519,104.646385 303.170959,107.431335 
	C302.449921,110.027412 301.237061,109.957848 299.800232,108.262245 
	C297.146515,105.130608 296.248260,101.554626 297.917542,97.223137 
z"/>
<path fill="#EFC7A9" opacity="1.000000" stroke="none" 
	d="
M184.813065,305.122772 
	C186.031815,306.929535 186.875137,308.573608 188.050568,309.929749 
	C191.775070,314.226715 189.580643,317.623077 186.601562,321.440338 
	C185.418686,316.079681 184.305298,311.186127 183.289490,306.272400 
	C183.130219,305.502045 182.079163,303.413300 184.813065,305.122772 
z"/>
<path fill="#E8947B" opacity="1.000000" stroke="none" 
	d="
M231.285156,106.621582 
	C225.368454,103.911972 225.208298,99.734192 230.928940,95.314774 
	C234.473663,98.720772 231.329010,102.543236 231.285156,106.621582 
z"/>
<path fill="#EBC4A6" opacity="1.000000" stroke="none" 
	d="
M180.979858,322.428375 
	C174.006866,320.499176 173.845459,319.426697 179.548843,312.901337 
	C180.429825,315.982025 181.171402,318.934906 180.979858,322.428375 
z"/>
<path fill="#E8C1A4" opacity="1.000000" stroke="none" 
	d="
M176.573715,302.665833 
	C176.153946,306.994293 174.536102,310.579559 172.288651,313.926697 
	C171.438812,315.192383 170.676804,315.977753 169.225693,314.604706 
	C168.036118,313.479218 167.746063,312.595642 169.186325,311.407410 
	C171.917068,309.154419 173.858093,306.278656 175.542526,302.809418 
	C176.006729,302.495880 176.220718,302.427368 176.573715,302.665833 
z"/>
<path fill="#6D5761" opacity="1.000000" stroke="none" 
	d="
M242.632690,56.974861 
	C241.731995,58.983704 239.678833,59.918957 237.321976,60.945969 
	C237.429016,57.923065 239.897812,57.513233 242.632690,56.974861 
z"/>
<path fill="#C09682" opacity="1.000000" stroke="none" 
	d="
M267.220093,94.680527 
	C266.943634,96.295036 266.474457,97.706604 265.732544,98.956245 
	C265.018921,100.158249 264.507111,99.411278 264.103180,98.225586 
	C264.956726,96.711700 264.925476,94.732674 267.220093,94.680527 
z"/>
<path fill="#C09682" opacity="1.000000" stroke="none" 
	d="
M268.634766,92.136482 
	C269.736237,92.032730 270.512085,92.207016 271.287964,92.381302 
	C270.772003,93.575539 269.438385,93.548080 268.258362,94.368332 
	C266.965363,93.640137 267.763580,93.048531 268.634766,92.136482 
z"/>
<path fill="#6D5761" opacity="1.000000" stroke="none" 
	d="
M236.663345,60.943661 
	C236.562805,61.996761 235.824478,62.679440 234.322510,62.946930 
	C234.165314,62.396488 234.461380,61.924244 234.877869,61.199520 
	C235.442795,60.933308 235.887314,60.919571 236.663345,60.943661 
z"/>
<path fill="#C09682" opacity="1.000000" stroke="none" 
	d="
M176.001404,302.714600 
	C176.010406,301.996826 176.228058,301.429260 176.445709,300.861725 
	C177.169037,301.258606 176.984818,301.920715 176.824890,302.757874 
	C176.545151,302.936829 176.377579,302.900818 176.001404,302.714600 
z"/>
<path fill="#000000" opacity="1.000000" stroke="none" 
	d="
M176.880249,349.743408 
	C176.565643,349.982086 176.140182,349.980377 175.402039,349.914429 
	C175.539474,349.202637 176.046249,348.829407 176.880249,349.743408 
z"/>
<path fill="#000000" opacity="1.000000" stroke="none" 
	d="
M390.755127,154.544678 
	C390.892792,154.371048 391.118683,154.344040 391.344604,154.317032 
	C391.177551,154.441788 391.010498,154.566544 390.755127,154.544678 
z"/>
<path fill="#6D5761" opacity="1.000000" stroke="none" 
	d="
M244.706268,56.020874 
	C244.526581,56.314468 244.048355,56.630322 243.276245,56.970341 
	C243.457489,56.677383 243.932617,56.360260 244.706268,56.020874 
z"/>
<path fill="#FCD2B1" opacity="1.000000" stroke="none" 
	d="
M129.022064,190.979477 
	C129.125824,190.641708 129.454330,190.493057 129.782837,190.344391 
	C129.846436,190.579910 129.910019,190.815414 129.847458,191.282928 
	C129.563156,191.399506 129.404984,191.284058 129.022064,190.979477 
z"/>
<path fill="#FCD2B1" opacity="1.000000" stroke="none" 
	d="
M384.679932,150.515778 
	C385.280914,149.778488 385.979492,149.488876 385.528320,151.108673 
	C385.153412,151.123215 385.013092,150.953552 384.679932,150.515778 
z"/>
<path fill="#C48E54" opacity="1.000000" stroke="none" 
	d="
M77.198776,429.808594 
	C77.367661,429.963654 77.429176,430.226959 77.490692,430.490295 
	C77.348785,430.476501 77.206863,430.462738 76.971825,430.292175 
	C76.878708,430.135345 77.091415,429.916870 77.198776,429.808594 
z"/>
<path fill="#FBCDAC" opacity="1.000000" stroke="none" 
	d="
M247.152481,148.404968 
	C247.412949,148.260742 247.614639,148.472488 247.871857,148.926880 
	C247.700211,148.985001 247.422318,148.848816 247.152481,148.404968 
z"/>
<path fill="#F19D81" opacity="1.000000" stroke="none" 
	d="
M274.171417,131.340073 
	C273.102570,128.623291 274.749878,129.058746 275.964996,129.519516 
	C279.277161,130.775513 282.561920,131.550583 286.054810,130.251358 
	C286.827698,129.963867 287.888702,129.984161 288.156189,130.898422 
	C288.516357,132.129425 287.446503,132.758881 286.477753,132.829987 
	C282.400665,133.129150 278.254608,133.829468 274.171417,131.340073 
z"/>
<path fill="#F19D81" opacity="1.000000" stroke="none" 
	d="
M286.803833,117.739426 
	C286.703979,116.917572 286.666138,116.164352 287.020569,115.734825 
	C287.865173,114.711288 286.222687,111.928589 288.746887,112.481445 
	C290.636292,112.895271 291.071808,115.362900 290.809845,117.111893 
	C290.385895,119.942574 288.523224,118.583450 286.803833,117.739426 
z"/>
<path fill="#6D5761" opacity="1.000000" stroke="none" 
	d="
M234.090515,63.086666 
	C233.625549,64.735962 232.914642,66.146751 230.681580,66.520828 
	C230.512405,64.453316 231.850433,63.731152 233.565445,62.963356 
	C233.869247,62.868740 234.016342,63.014446 234.090515,63.086666 
z"/>
</svg>